<?xml version="1.0" encoding="UTF-8" standalone="no"?>
<!-- Generator: Adobe Illustrator 16.0.0, SVG Export Plug-In . SVG Version: 6.00 Build 0)  -->

<svg
   xmlns:dc="http://purl.org/dc/elements/1.1/"
   xmlns:cc="http://creativecommons.org/ns#"
   xmlns:rdf="http://www.w3.org/1999/02/22-rdf-syntax-ns#"
   xmlns:svg="http://www.w3.org/2000/svg"
   xmlns="http://www.w3.org/2000/svg"
   xmlns:sodipodi="http://sodipodi.sourceforge.net/DTD/sodipodi-0.dtd"
   xmlns:inkscape="http://www.inkscape.org/namespaces/inkscape"
   version="1.1"
   id="Capa_1"
   x="0px"
   y="0px"
   width="561px"
   height="561px"
   viewBox="0 0 561 561"
   style="enable-background:new 0 0 561 561;"
   xml:space="preserve"
   inkscape:version="0.91 r"
   sodipodi:docname="error_connection.svg"
   inkscape:export-filename="/var/www/html/llxmarkt/css/img/refresh.png"
   inkscape:export-xdpi="3.8499999"
   inkscape:export-ydpi="3.8499999"><metadata
     id="metadata3456"><rdf:RDF><cc:Work
         rdf:about=""><dc:format>image/svg+xml</dc:format><dc:type
           rdf:resource="http://purl.org/dc/dcmitype/StillImage" /><dc:title></dc:title></cc:Work></rdf:RDF></metadata><defs
     id="defs3454" /><sodipodi:namedview
     pagecolor="#ffffff"
     bordercolor="#666666"
     borderopacity="1"
     objecttolerance="10"
     gridtolerance="10"
     guidetolerance="10"
     inkscape:pageopacity="0"
     inkscape:pageshadow="2"
     inkscape:window-width="1280"
     inkscape:window-height="938"
     id="namedview3452"
     showgrid="false"
     inkscape:zoom="0.42413803"
     inkscape:cx="445.49707"
     inkscape:cy="117.36357"
     inkscape:window-x="0"
     inkscape:window-y="24"
     inkscape:window-maximized="1"
     inkscape:current-layer="Capa_1" /><g
     id="g3422" /><g
     id="g3424" /><g
     id="g3426" /><g
     id="g3428" /><g
     id="g3430" /><g
     id="g3432" /><g
     id="g3434" /><g
     id="g3436" /><g
     id="g3438" /><g
     id="g3440" /><g
     id="g3442" /><g
     id="g3444" /><g
     id="g3446" /><g
     id="g3448" /><g
     id="g3450" /><path
     style="opacity:1;fill:#fd8579;fill-opacity:1"
     d="M 281.49529,65.308419 A 212.19508,212.19508 0 0 0 69.299975,277.50373 212.19508,212.19508 0 0 0 281.49529,489.69901 212.19508,212.19508 0 0 0 493.6906,277.50373 212.19508,212.19508 0 0 0 281.49529,65.308419 Z m 0,47.154291 A 165.04062,165.04062 0 0 1 446.5363,277.50373 165.04062,165.04062 0 0 1 281.49529,442.54471 165.04062,165.04062 0 0 1 116.45622,277.50373 165.04062,165.04062 0 0 1 281.49529,112.46271 Z"
     id="path5893"
     inkscape:connector-curvature="0" /><polygon
     transform="matrix(10.715338,0,0,10.715338,-58.30066,-149.31562)"
     style="fill:#fd8579;fill-opacity:1"
     points="42.764,46.288 36.715,40.238 42.656,34.297 37.73,29.372 31.789,35.314 25.955,29.479 21.031,34.405 26.865,40.238 20.924,46.18 25.848,51.104 31.789,45.163 37.84,51.213 "
     id="polygon5487" /></svg>