<?xml version="1.0" encoding="UTF-8" standalone="no"?>
<!-- Generator: Adobe Illustrator 16.0.0, SVG Export Plug-In . SVG Version: 6.00 Build 0)  -->

<svg
   xmlns:dc="http://purl.org/dc/elements/1.1/"
   xmlns:cc="http://creativecommons.org/ns#"
   xmlns:rdf="http://www.w3.org/1999/02/22-rdf-syntax-ns#"
   xmlns:svg="http://www.w3.org/2000/svg"
   xmlns="http://www.w3.org/2000/svg"
   xmlns:xlink="http://www.w3.org/1999/xlink"
   xmlns:sodipodi="http://sodipodi.sourceforge.net/DTD/sodipodi-0.dtd"
   xmlns:inkscape="http://www.inkscape.org/namespaces/inkscape"
   version="1.1"
   id="Capa_1"
   x="0px"
   y="0px"
   width="561px"
   height="561px"
   viewBox="0 0 561 561"
   style="enable-background:new 0 0 561 561;"
   xml:space="preserve"
   inkscape:version="0.91 r"
   sodipodi:docname="ok_connection.svg"
   inkscape:export-filename="/var/www/html/llxmarkt/css/img/connection_checked.png"
   inkscape:export-xdpi="7.7005348"
   inkscape:export-ydpi="7.7005348"><metadata
     id="metadata3456"><rdf:RDF><cc:Work
         rdf:about=""><dc:format>image/svg+xml</dc:format><dc:type
           rdf:resource="http://purl.org/dc/dcmitype/StillImage" /><dc:title /></cc:Work></rdf:RDF></metadata><defs
     id="defs3454" /><sodipodi:namedview
     pagecolor="#ffffff"
     bordercolor="#666666"
     borderopacity="1"
     objecttolerance="10"
     gridtolerance="10"
     guidetolerance="10"
     inkscape:pageopacity="0"
     inkscape:pageshadow="2"
     inkscape:window-width="1280"
     inkscape:window-height="995"
     id="namedview3452"
     showgrid="false"
     inkscape:zoom="0.59982175"
     inkscape:cx="83.474432"
     inkscape:cy="201.13399"
     inkscape:window-x="1280"
     inkscape:window-y="0"
     inkscape:window-maximized="1"
     inkscape:current-layer="Capa_1" /><g
     id="g3422" /><g
     id="g3424" /><g
     id="g3426" /><g
     id="g3428" /><g
     id="g3430" /><g
     id="g3432" /><g
     id="g3434" /><g
     id="g3436" /><g
     id="g3438" /><g
     id="g3440" /><g
     id="g3442" /><g
     id="g3444" /><g
     id="g3446" /><g
     id="g3448" /><g
     id="g3450" /><path
     style="opacity:1;fill:#91c966;fill-opacity:1"
     d="M 281.49529,65.308419 A 212.19508,212.19508 0 0 0 69.299975,277.50373 212.19508,212.19508 0 0 0 281.49529,489.69901 212.19508,212.19508 0 0 0 493.6906,277.50373 212.19508,212.19508 0 0 0 281.49529,65.308419 Z m 0,47.154291 A 165.04062,165.04062 0 0 1 446.5363,277.50373 165.04062,165.04062 0 0 1 281.49529,442.54471 165.04062,165.04062 0 0 1 116.45622,277.50373 165.04062,165.04062 0 0 1 281.49529,112.46271 Z"
     id="path5893"
     inkscape:connector-curvature="0" /><use
     height="100%"
     width="100%"
     id="svg_10"
     xlink:href="#svg_9"
     transform="matrix(1.87181,0,0,1.87181,-23.9896,-96.5173)"
     y="20.835445"
     x="0" /><use
     height="100%"
     width="100%"
     id="svg_10-1"
     xlink:href="#svg_9"
     transform="matrix(1.87181,0,0,1.87181,-23.9896,-96.5173)"
     y="20.835445"
     x="0" /><use
     height="100%"
     width="100%"
     id="svg_10-3"
     xlink:href="#svg_9"
     transform="matrix(1.87181,0,0,1.87181,-23.9896,-96.5173)"
     y="20.835445"
     x="0" /><use
     height="100%"
     width="100%"
     id="svg_10-33"
     xlink:href="#svg_9"
     transform="matrix(1.87181,0,0,1.87181,288.7604,-616.2673)"
     y="20.835445"
     x="0" /><use
     height="100%"
     width="100%"
     id="svg_10-7"
     xlink:href="#svg_9"
     transform="matrix(1.87181,0,0,1.87181,317.0104,314.64468)"
     y="20.835445"
     x="0" /><path
     style="fill:#91c966;fill-opacity:1;fill-rule:evenodd;stroke:none;stroke-width:1px;stroke-linecap:butt;stroke-linejoin:miter;stroke-opacity:1"
     d="M 196.32837,235.73853 148.70041,262.27107 232.65265,415.38005 422.95531,220.81212 377.21155,173.77124 241.80423,332.89563 Z"
     id="path5598"
     inkscape:connector-curvature="0"
     sodipodi:nodetypes="ccccccc" /></svg>