<?xml version="1.0" encoding="UTF-8" standalone="no"?>
<!-- Generator: Adobe Illustrator 16.0.0, SVG Export Plug-In . SVG Version: 6.00 Build 0)  -->

<svg
   xmlns:dc="http://purl.org/dc/elements/1.1/"
   xmlns:cc="http://creativecommons.org/ns#"
   xmlns:rdf="http://www.w3.org/1999/02/22-rdf-syntax-ns#"
   xmlns:svg="http://www.w3.org/2000/svg"
   xmlns="http://www.w3.org/2000/svg"
   xmlns:sodipodi="http://sodipodi.sourceforge.net/DTD/sodipodi-0.dtd"
   xmlns:inkscape="http://www.inkscape.org/namespaces/inkscape"
   version="1.1"
   id="Capa_1"
   x="0px"
   y="0px"
   width="561px"
   height="561px"
   viewBox="0 0 561 561"
   style="enable-background:new 0 0 561 561;"
   xml:space="preserve"
   inkscape:version="0.91 r"
   sodipodi:docname="refresh.svg"
   inkscape:export-filename="/var/www/html/llxmarkt/css/img/refresh.png"
   inkscape:export-xdpi="3.8499999"
   inkscape:export-ydpi="3.8499999"><metadata
     id="metadata3456"><rdf:RDF><cc:Work
         rdf:about=""><dc:format>image/svg+xml</dc:format><dc:type
           rdf:resource="http://purl.org/dc/dcmitype/StillImage" /></cc:Work></rdf:RDF></metadata><defs
     id="defs3454" /><sodipodi:namedview
     pagecolor="#ffffff"
     bordercolor="#666666"
     borderopacity="1"
     objecttolerance="10"
     gridtolerance="10"
     guidetolerance="10"
     inkscape:pageopacity="0"
     inkscape:pageshadow="2"
     inkscape:window-width="1280"
     inkscape:window-height="938"
     id="namedview3452"
     showgrid="false"
     inkscape:zoom="0.59982175"
     inkscape:cx="288.72773"
     inkscape:cy="215.30362"
     inkscape:window-x="0"
     inkscape:window-y="24"
     inkscape:window-maximized="1"
     inkscape:current-layer="Capa_1" /><g
     id="g3417"
     style="fill:#b3b3b3"><g
       id="loop"
       style="fill:#b3b3b3"><path
         d="M280.5,76.5V0l-102,102l102,102v-76.5c84.15,0,153,68.85,153,153c0,25.5-7.65,51-17.85,71.4l38.25,38.25    C471.75,357,484.5,321.3,484.5,280.5C484.5,168.3,392.7,76.5,280.5,76.5z M280.5,433.5c-84.15,0-153-68.85-153-153    c0-25.5,7.65-51,17.85-71.4l-38.25-38.25C89.25,204,76.5,239.7,76.5,280.5c0,112.2,91.8,204,204,204V561l102-102l-102-102V433.5z"
         id="path3420"
         style="fill:#b3b3b3" /></g></g><g
     id="g3422" /><g
     id="g3424" /><g
     id="g3426" /><g
     id="g3428" /><g
     id="g3430" /><g
     id="g3432" /><g
     id="g3434" /><g
     id="g3436" /><g
     id="g3438" /><g
     id="g3440" /><g
     id="g3442" /><g
     id="g3444" /><g
     id="g3446" /><g
     id="g3448" /><g
     id="g3450" /></svg>